<?xml version="1.0" encoding="UTF-8" standalone="no"?>
<svg
   xmlns="http://www.w3.org/2000/svg"
   width="130mm"
   height="60mm"
   viewBox="0 0 130 59.999999"
   version="1.1"
   id="svg_quados4"
   style="display:none;">
  <defs
     id="defs8978">
    <marker
       style="overflow:visible"
       id="marker7162"
       refX="0"
       refY="0"
       orient="auto">
      <path
         transform="matrix(0.4,0,0,0.4,4,0)"
         style="fill:#757575;fill-opacity:1;fill-rule:evenodd;stroke:#757575;stroke-width:1.00000003pt;stroke-opacity:1"
         d="M 0,0 5,-5 -12.5,0 5,5 Z"
         id="path7160" />
    </marker>
    <marker
       style="overflow:visible"
       id="marker7244"
       refX="0"
       refY="0"
       orient="auto">
      <path
         transform="matrix(-0.4,0,0,-0.4,-4,0)"
         style="fill:#757575;fill-opacity:1;fill-rule:evenodd;stroke:#757575;stroke-width:1.00000003pt;stroke-opacity:1"
         d="M 0,0 5,-5 -12.5,0 5,5 Z"
         id="path7242" />
    </marker>
    <marker
       orient="auto"
       refY="0"
       refX="0"
       id="Arrow1Mstart"
       style="overflow:visible">
      <path
         id="path4636"
         d="M 0,0 5,-5 -12.5,0 5,5 Z"
         style="fill:#787878;fill-opacity:1;fill-rule:evenodd;stroke:#787878;stroke-width:1.00000003pt;stroke-opacity:1"
         transform="matrix(0.4,0,0,0.4,4,0)" />
    </marker>
    <marker
       orient="auto"
       refY="0"
       refX="0"
       id="Arrow1Mend"
       style="overflow:visible">
      <path
         id="path4639"
         d="M 0,0 5,-5 -12.5,0 5,5 Z"
         style="fill:#787878;fill-opacity:1;fill-rule:evenodd;stroke:#787878;stroke-width:1.00000003pt;stroke-opacity:1"
         transform="matrix(-0.4,0,0,-0.4,-4,0)" />
    </marker>
    <marker
       style="overflow:visible"
       id="marker7162-4"
       refX="0"
       refY="0"
       orient="auto">
      <path
         transform="matrix(0.4,0,0,0.4,4,0)"
         style="fill:#000000;fill-opacity:1;fill-rule:evenodd;stroke:#000000;stroke-width:1.00000003pt;stroke-opacity:1"
         d="M 0,0 5,-5 -12.5,0 5,5 Z"
         id="path7160-3" />
    </marker>
    <marker
       style="overflow:visible"
       id="marker7244-0"
       refX="0"
       refY="0"
       orient="auto">
      <path
         transform="matrix(-0.4,0,0,-0.4,-4,0)"
         style="fill:#000000;fill-opacity:1;fill-rule:evenodd;stroke:#000000;stroke-width:1.00000003pt;stroke-opacity:1"
         d="M 0,0 5,-5 -12.5,0 5,5 Z"
         id="path7242-3" />
    </marker>
    <marker
       style="overflow:visible"
       id="marker7162-6"
       refX="0"
       refY="0"
       orient="auto">
      <path
         transform="matrix(0.4,0,0,0.4,4,0)"
         style="fill:#757575;fill-opacity:1;fill-rule:evenodd;stroke:#757575;stroke-width:1.00000003pt;stroke-opacity:1"
         d="M 0,0 5,-5 -12.5,0 5,5 Z"
         id="path7160-38" />
    </marker>
    <marker
       style="overflow:visible"
       id="marker7244-5"
       refX="0"
       refY="0"
       orient="auto">
      <path
         transform="matrix(-0.4,0,0,-0.4,-4,0)"
         style="fill:#757575;fill-opacity:1;fill-rule:evenodd;stroke:#757575;stroke-width:1.00000003pt;stroke-opacity:1"
         d="M 0,0 5,-5 -12.5,0 5,5 Z"
         id="path7242-6" />
    </marker>
    <marker
       orient="auto"
       refY="0"
       refX="0"
       id="Arrow1Mstart-1"
       style="overflow:visible">
      <path
         id="path4636-1"
         d="M 0,0 5,-5 -12.5,0 5,5 Z"
         style="fill:#787878;fill-opacity:1;fill-rule:evenodd;stroke:#787878;stroke-width:1.00000003pt;stroke-opacity:1"
         transform="matrix(0.4,0,0,0.4,4,0)" />
    </marker>
    <marker
       orient="auto"
       refY="0"
       refX="0"
       id="Arrow1Mend-5"
       style="overflow:visible">
      <path
         id="path4639-9"
         d="M 0,0 5,-5 -12.5,0 5,5 Z"
         style="fill:#787878;fill-opacity:1;fill-rule:evenodd;stroke:#787878;stroke-width:1.00000003pt;stroke-opacity:1"
         transform="matrix(-0.4,0,0,-0.4,-4,0)" />
    </marker>
    <marker
       orient="auto"
       refY="0"
       refX="0"
       id="Arrow1Mstart-1-5"
       style="overflow:visible">
      <path
         id="path4636-1-7"
         d="M 0,0 5,-5 -12.5,0 5,5 Z"
         style="fill:#787878;fill-opacity:1;fill-rule:evenodd;stroke:#787878;stroke-width:1.00000003pt;stroke-opacity:1"
         transform="matrix(0.4,0,0,0.4,4,0)" />
    </marker>
    <marker
       orient="auto"
       refY="0"
       refX="0"
       id="Arrow1Mend-5-4"
       style="overflow:visible">
      <path
         id="path4639-9-1"
         d="M 0,0 5,-5 -12.5,0 5,5 Z"
         style="fill:#787878;fill-opacity:1;fill-rule:evenodd;stroke:#787878;stroke-width:1.00000003pt;stroke-opacity:1"
         transform="matrix(-0.4,0,0,-0.4,-4,0)" />
    </marker>
    <marker
       style="overflow:visible"
       id="marker7162-6-8"
       refX="0"
       refY="0"
       orient="auto">
      <path
         transform="matrix(0.4,0,0,0.4,4,0)"
         style="fill:#757575;fill-opacity:1;fill-rule:evenodd;stroke:#757575;stroke-width:1.00000003pt;stroke-opacity:1"
         d="M 0,0 5,-5 -12.5,0 5,5 Z"
         id="path7160-38-5" />
    </marker>
    <marker
       style="overflow:visible"
       id="marker7244-5-9"
       refX="0"
       refY="0"
       orient="auto">
      <path
         transform="matrix(-0.4,0,0,-0.4,-4,0)"
         style="fill:#757575;fill-opacity:1;fill-rule:evenodd;stroke:#757575;stroke-width:1.00000003pt;stroke-opacity:1"
         d="M 0,0 5,-5 -12.5,0 5,5 Z"
         id="path7242-6-7" />
    </marker>
  </defs>
  <path
     d="m 66.500964,18.096471 c 0,0.923295 -0.74848,1.671778 -1.67178,1.671778 -0.92329,0 -1.67177,-0.748483 -1.67177,-1.671778 0,-0.923295 0.74848,-1.671778 1.67177,-1.671778 0.9233,0 1.67178,0.748483 1.67178,1.671778 z m 0,-5.600342 c 0,0.923295 -0.74848,1.671778 -1.67178,1.671778 -0.92329,0 -1.67177,-0.748483 -1.67177,-1.671778 0,-0.923295 0.74848,-1.671778 1.67177,-1.671778 0.9233,0 1.67178,0.748483 1.67178,1.671778 z m -3.3013,-0.01048 h -6.8209 l -8.61345,-8.6135312 -8.51608,8.5160782 h -16.5368 L 14.038774,3.8721178 2.5868928,15.323995 14.038774,26.775874 l 8.71083,-8.710837 h 16.30488 l 8.71083,8.710837 8.61345,-8.613462 h 6.77287 m 3.28382,0 h 6.59002 l 8.66719,8.613476 8.61345,-8.61346 h 16.646306 l 8.6672,8.613477 11.45187,-11.451878 -11.45187,-11.4518782 -8.6672,8.6134772 H 90.306114 l -8.61345,-8.6134542 -8.66719,8.6134772 h -6.49394"
     style="fill:none;stroke:#1602dd;stroke-width:0.66500002;stroke-miterlimit:4;stroke-dasharray:none;stroke-opacity:1"
     id="path4625" />
  <path
     id="path5490"
     d="m 69.167814,13.125853 0.0434,4.168413"
     style="fill:none;fill-opacity:1;stroke:#787878;stroke-width:0.26458332px;stroke-linecap:butt;stroke-linejoin:miter;stroke-opacity:1;marker-start:url(#Arrow1Mstart);marker-end:url(#Arrow1Mend)" />
  <path
     style="fill:none;fill-opacity:1;stroke:#757575;stroke-width:0.26458332px;stroke-linecap:butt;stroke-linejoin:miter;stroke-opacity:1;marker-start:url(#marker7162);marker-end:url(#marker7244)"
     d="m 71.926734,24.54559 -6.22287,0.04339"
     id="path7158" />
  <path
     style="fill:none;fill-opacity:1;stroke:#787878;stroke-width:0.26458332px;stroke-linecap:butt;stroke-linejoin:miter;stroke-opacity:1"
     d="m 64.769534,20.51158 0.0434,4.168412"
     id="path7606" />
  <path
     id="path8252"
     d="m 72.896644,18.768393 0.0434,5.911599"
     style="fill:none;fill-opacity:1;stroke:#787878;stroke-width:0.26458332px;stroke-linecap:butt;stroke-linejoin:miter;stroke-opacity:1" />
  <text
     id="text8911"
     y="11.040092"
     x="67.807228"
     style="font-style:normal;font-variant:normal;font-weight:bold;font-stretch:normal;font-size:4.68368101px;line-height:1.25;font-family:'Noto Serif CJK JP';-inkscape-font-specification:'Noto Serif CJK JP, Bold';font-variant-ligatures:normal;font-variant-caps:normal;font-variant-numeric:normal;font-feature-settings:normal;text-align:start;letter-spacing:0px;word-spacing:0px;writing-mode:lr-tb;text-anchor:start;fill:#0e0000;fill-opacity:1;stroke:none;stroke-width:0.26458332"
     xml:space="preserve"><tspan
       style="font-style:normal;font-variant:normal;font-weight:bold;font-stretch:normal;font-size:4.68368101px;font-family:'Noto Serif CJK JP';-inkscape-font-specification:'Noto Serif CJK JP, Bold';font-variant-ligatures:normal;font-variant-caps:normal;font-variant-numeric:normal;font-feature-settings:normal;text-align:start;writing-mode:lr-tb;text-anchor:start;fill:#0e0000;fill-opacity:1;stroke-width:0.26458332"
       y="11.040092"
       x="67.807228"
       id="tspan8909">D</tspan></text>
  <text
     xml:space="preserve"
     style="font-style:normal;font-variant:normal;font-weight:bold;font-stretch:normal;font-size:4.68357325px;line-height:1.25;font-family:'Noto Serif CJK JP';-inkscape-font-specification:'Noto Serif CJK JP, Bold';font-variant-ligatures:normal;font-variant-caps:normal;font-variant-numeric:normal;font-feature-settings:normal;text-align:start;letter-spacing:0px;word-spacing:0px;writing-mode:lr-tb;text-anchor:start;fill:#0e0000;fill-opacity:1;stroke:none;stroke-width:0.26458332"
     x="65.776436"
     y="22.913185"
     id="text8915"><tspan
       id="tspan8917"
       x="65.776436"
       y="22.913185"
       style="stroke-width:0.26458332">A1</tspan></text>
  <text
     id="text8921"
     y="6.7548966"
     x="74.690277"
     style="font-style:normal;font-variant:normal;font-weight:bold;font-stretch:normal;font-size:4.68357325px;line-height:1.25;font-family:'Noto Serif CJK JP';-inkscape-font-specification:'Noto Serif CJK JP, Bold';font-variant-ligatures:normal;font-variant-caps:normal;font-variant-numeric:normal;font-feature-settings:normal;text-align:start;letter-spacing:0px;word-spacing:0px;writing-mode:lr-tb;text-anchor:start;fill:#0e0000;fill-opacity:1;stroke:none;stroke-width:0.26458332"
     xml:space="preserve"><tspan
       id="tspan8923"
       x="74.690277"
       y="6.7548966"
       style="stroke-width:0.26458332">B</tspan></text>
  <text
     xml:space="preserve"
     style="font-style:normal;font-variant:normal;font-weight:bold;font-stretch:normal;font-size:4.68357325px;line-height:1.25;font-family:'Noto Serif CJK JP';-inkscape-font-specification:'Noto Serif CJK JP, Bold';font-variant-ligatures:normal;font-variant-caps:normal;font-variant-numeric:normal;font-feature-settings:normal;text-align:start;letter-spacing:0px;word-spacing:0px;writing-mode:lr-tb;text-anchor:start;fill:#0e0000;fill-opacity:1;stroke:none;stroke-width:0.26458332"
     x="120.28699"
     y="6.7548966"
     id="text8935"><tspan
       y="6.7548966"
       x="120.28699"
       id="tspan8933"
       style="stroke-width:0.26458332">C</tspan></text>
  <text
     id="text8939"
     y="22.913185"
     x="96.201241"
     style="font-style:normal;font-variant:normal;font-weight:bold;font-stretch:normal;font-size:4.68357325px;line-height:1.25;font-family:'Noto Serif CJK JP';-inkscape-font-specification:'Noto Serif CJK JP, Bold';font-variant-ligatures:normal;font-variant-caps:normal;font-variant-numeric:normal;font-feature-settings:normal;text-align:start;letter-spacing:0px;word-spacing:0px;writing-mode:lr-tb;text-anchor:start;fill:#0e0000;fill-opacity:1;stroke:none;stroke-width:0.26458332"
     xml:space="preserve"><tspan
       id="tspan8941"
       x="96.201241"
       y="22.913185"
       style="stroke-width:0.26458332">A2</tspan></text>
  <g
     id="g66"
     transform="translate(2.1166628,-8.9754533)">
    <path
       transform="matrix(0.94309708,0.33251752,0,1,0,0)"
       style="fill:#898989;fill-opacity:1;stroke:none;stroke-width:0.16990486;stroke-miterlimit:4;stroke-dasharray:none;stroke-opacity:1"
       d="M 62.956074,16.404846 H 77.891706 V 42.016762 H 62.956074 Z"
       id="rect9166" />
    <path
       d="m 68.60602,52.821231 c 0.32877,0.120919 0.59482,0.41467 0.59482,0.656229 -3.6e-4,0.241438 -0.26739,0.339052 -0.59621,0.218091 -0.32874,-0.12092 -0.59483,-0.414637 -0.59483,-0.656233 3.7e-4,-0.241428 0.26738,-0.339056 0.59622,-0.218087 z m -1.9951,-0.733872 c 0.32875,0.120919 0.5948,0.41467 0.5948,0.656229 -3.3e-4,0.241438 -0.26738,0.33905 -0.5962,0.218091 -0.32875,-0.12092 -0.59482,-0.414636 -0.59482,-0.656233 3.6e-4,-0.241462 0.26738,-0.339057 0.59622,-0.218087 z m -0.004,0.862633 -0.004,1.783533 -3.07307,1.123204 3.02946,3.342659 -0.006,4.324528 m 2.02241,0.734256 0.006,-4.263849 3.10776,-1.135924 -3.06406,-3.380858 0.004,-1.770966 m 0.002,-0.858576 0.004,-1.723122 3.07307,-1.137264 -3.06409,-3.380874 0.006,-4.353175 m -2.02235,-0.743959 -0.006,4.353179 -3.07298,1.123239 3.0641,3.394929 -0.004,1.697986"
       style="fill:none;stroke:#787878;stroke-width:0.36500004;stroke-miterlimit:4;stroke-dasharray:none;stroke-opacity:1"
       id="path9750" />
    <path
       id="path7158-0"
       d="M 71.66009,50.113487 65.47839,48.00107"
       style="fill:none;fill-opacity:1;stroke:#000000;stroke-width:0.26458332px;stroke-linecap:butt;stroke-linejoin:miter;stroke-opacity:1;marker-start:url(#marker7162-4);marker-end:url(#marker7244-0)" />
    <text
       id="text8915-9"
       y="47.363243"
       x="66.610458"
       style="font-style:normal;font-variant:normal;font-weight:bold;font-stretch:normal;font-size:5.00732803px;line-height:1.25;font-family:'Noto Serif CJK JP';-inkscape-font-specification:'Noto Serif CJK JP, Bold';font-variant-ligatures:normal;font-variant-caps:normal;font-variant-numeric:normal;font-feature-settings:normal;text-align:start;letter-spacing:0px;word-spacing:0px;writing-mode:lr-tb;text-anchor:start;fill:#0e0000;fill-opacity:1;stroke:none;stroke-width:0.26458332"
       xml:space="preserve"><tspan
         y="47.363243"
         x="66.610458"
         id="tspan260">E</tspan></text>
    <path
       id="path4625-6"
       style="fill:none;stroke:#1602dd;stroke-width:0.36500004;stroke-miterlimit:4;stroke-dasharray:none;stroke-opacity:1"
       d="m 62.37595,50.834688 c 0.32874,0.120919 0.59479,0.41467 0.59479,0.656229 -3.3e-4,0.241437 -0.26738,0.339051 -0.5962,0.218091 -0.32875,-0.12092 -0.59482,-0.414637 -0.59482,-0.656234 3.6e-4,-0.241428 0.26738,-0.339055 0.59623,-0.218086 z m -1.99512,-0.733872 c 0.32875,0.120919 0.5948,0.41467 0.5948,0.656229 -3.4e-4,0.241438 -0.26739,0.33905 -0.59619,0.218091 -0.32876,-0.12092 -0.59484,-0.414637 -0.59484,-0.656233 3.8e-4,-0.241462 0.26739,-0.339057 0.59623,-0.218087 z m -0.004,0.862633 -0.004,1.783533 -3.07307,1.123204 3.02947,3.342658 -0.006,4.324528 m 2.0224,0.734257 0.006,-4.263849 3.10775,-1.135924 -3.06406,-3.380859 0.004,-1.770965 m 0.002,-0.858576 0.004,-1.723122 3.07307,-1.137264 -3.0641,-3.380874 0.006,-4.353175 m -2.02235,-0.743959 -0.006,4.353179 -3.07297,1.123239 3.06409,3.394929 -0.004,1.697986" />
  </g>
  <text
     xml:space="preserve"
     style="font-style:normal;font-variant:normal;font-weight:bold;font-stretch:normal;font-size:4.68357325px;line-height:1.25;font-family:'Noto Serif CJK JP';-inkscape-font-specification:'Noto Serif CJK JP, Bold';font-variant-ligatures:normal;font-variant-caps:normal;font-variant-numeric:normal;font-feature-settings:normal;text-align:start;letter-spacing:0px;word-spacing:0px;writing-mode:lr-tb;text-anchor:start;fill:#0e0000;fill-opacity:1;stroke:none;stroke-width:0.26458332"
     x="85.273621"
     y="6.7548966"
     id="text64"><tspan
       style="stroke-width:0.26458332"
       y="6.7548966"
       x="85.273621"
       id="tspan62">B</tspan></text>
  <text
     id="text68"
     y="6.7548966"
     x="109.08614"
     style="font-style:normal;font-variant:normal;font-weight:bold;font-stretch:normal;font-size:4.68357325px;line-height:1.25;font-family:'Noto Serif CJK JP';-inkscape-font-specification:'Noto Serif CJK JP, Bold';font-variant-ligatures:normal;font-variant-caps:normal;font-variant-numeric:normal;font-feature-settings:normal;text-align:start;letter-spacing:0px;word-spacing:0px;writing-mode:lr-tb;text-anchor:start;fill:#0e0000;fill-opacity:1;stroke:none;stroke-width:0.26458332"
     xml:space="preserve"><tspan
       id="tspan66"
       x="109.08614"
       y="6.7548966"
       style="stroke-width:0.26458332">B</tspan></text>
</svg>
