<?xml version="1.0" encoding="UTF-8" standalone="no"?>
<svg
   xmlns="http://www.w3.org/2000/svg"
   width="211mm"
   height="65mm"
   viewBox="0 0 211 65"
   version="1.1"
   id="svg_quados6"
   style="display:none;">
  <defs
     id="defs520">
    <marker
       orient="auto"
       refY="0"
       refX="0"
       id="marker7162-4"
       style="overflow:visible">
      <path
         id="path7160-3"
         d="M 0,0 5,-5 -12.5,0 5,5 Z"
         style="fill:#000000;fill-opacity:1;fill-rule:evenodd;stroke:#000000;stroke-width:1.00000003pt;stroke-opacity:1"
         transform="matrix(0.4,0,0,0.4,4,0)" />
    </marker>
    <marker
       orient="auto"
       refY="0"
       refX="0"
       id="marker7244-0"
       style="overflow:visible">
      <path
         id="path7242-3"
         d="M 0,0 5,-5 -12.5,0 5,5 Z"
         style="fill:#000000;fill-opacity:1;fill-rule:evenodd;stroke:#000000;stroke-width:1.00000003pt;stroke-opacity:1"
         transform="matrix(-0.4,0,0,-0.4,-4,0)" />
    </marker>
    <marker
       style="overflow:visible"
       id="Arrow1Mstart-1"
       refX="0"
       refY="0"
       orient="auto">
      <path
         transform="matrix(0.4,0,0,0.4,4,0)"
         style="fill:#787878;fill-opacity:1;fill-rule:evenodd;stroke:#787878;stroke-width:1.00000003pt;stroke-opacity:1"
         d="M 0,0 5,-5 -12.5,0 5,5 Z"
         id="path4636-1" />
    </marker>
    <marker
       style="overflow:visible"
       id="Arrow1Mend-5"
       refX="0"
       refY="0"
       orient="auto">
      <path
         transform="matrix(-0.4,0,0,-0.4,-4,0)"
         style="fill:#787878;fill-opacity:1;fill-rule:evenodd;stroke:#787878;stroke-width:1.00000003pt;stroke-opacity:1"
         d="M 0,0 5,-5 -12.5,0 5,5 Z"
         id="path4639-9" />
    </marker>
    <marker
       orient="auto"
       refY="0"
       refX="0"
       id="marker7162-6"
       style="overflow:visible">
      <path
         id="path7160-38"
         d="M 0,0 5,-5 -12.5,0 5,5 Z"
         style="fill:#757575;fill-opacity:1;fill-rule:evenodd;stroke:#757575;stroke-width:1.00000003pt;stroke-opacity:1"
         transform="matrix(0.4,0,0,0.4,4,0)" />
    </marker>
    <marker
       orient="auto"
       refY="0"
       refX="0"
       id="marker7244-5"
       style="overflow:visible">
      <path
         id="path7242-6"
         d="M 0,0 5,-5 -12.5,0 5,5 Z"
         style="fill:#757575;fill-opacity:1;fill-rule:evenodd;stroke:#757575;stroke-width:1.00000003pt;stroke-opacity:1"
         transform="matrix(-0.4,0,0,-0.4,-4,0)" />
    </marker>
  </defs>
  <g
     id="layer1"
     transform="translate(-60.325622,-110.05208)">
    <g
       transform="translate(99.975329,105.01828)"
       id="g190">
      <path
         id="rect9166"
         d="M 62.956074,16.404846 H 77.891706 V 42.016762 H 62.956074 Z"
         style="fill:#898989;fill-opacity:1;stroke:none;stroke-width:0.16990486;stroke-miterlimit:4;stroke-dasharray:none;stroke-opacity:1"
         transform="matrix(0.94309708,0.33251752,0,1,0,0)" />
      <path
         id="path9750"
         style="fill:none;stroke:#787878;stroke-width:0.36500004;stroke-miterlimit:4;stroke-dasharray:none;stroke-opacity:1"
         d="m 68.60602,52.821231 c 0.32877,0.120919 0.59482,0.41467 0.59482,0.656229 -3.6e-4,0.241438 -0.26739,0.339052 -0.59621,0.218091 -0.32874,-0.12092 -0.59483,-0.414637 -0.59483,-0.656233 3.7e-4,-0.241428 0.26738,-0.339056 0.59622,-0.218087 z m -1.9951,-0.733872 c 0.32875,0.120919 0.5948,0.41467 0.5948,0.656229 -3.3e-4,0.241438 -0.26738,0.33905 -0.5962,0.218091 -0.32875,-0.12092 -0.59482,-0.414636 -0.59482,-0.656233 3.6e-4,-0.241462 0.26738,-0.339057 0.59622,-0.218087 z m -0.004,0.862633 -0.004,1.783533 -3.07307,1.123204 3.02946,3.342659 -0.006,4.324528 m 2.02241,0.734256 0.006,-4.263849 3.10776,-1.135924 -3.06406,-3.380858 0.004,-1.770966 m 0.002,-0.858576 0.004,-1.723122 3.07307,-1.137264 -3.06409,-3.380874 0.006,-4.353175 m -2.02235,-0.743959 -0.006,4.353179 -3.07298,1.123239 3.0641,3.394929 -0.004,1.697986" />
      <path
         style="fill:none;fill-opacity:1;stroke:#000000;stroke-width:0.26458332px;stroke-linecap:butt;stroke-linejoin:miter;stroke-opacity:1;marker-start:url(#marker7162-4);marker-end:url(#marker7244-0)"
         d="M 71.66009,50.113487 65.47839,48.00107"
         id="path7158-0" />
      <text
         xml:space="preserve"
         style="font-style:normal;font-variant:normal;font-weight:bold;font-stretch:normal;font-size:5.00732803px;line-height:1.25;font-family:'Noto Serif CJK JP';-inkscape-font-specification:'Noto Serif CJK JP, Bold';font-variant-ligatures:normal;font-variant-caps:normal;font-variant-numeric:normal;font-feature-settings:normal;text-align:start;letter-spacing:0px;word-spacing:0px;writing-mode:lr-tb;text-anchor:start;fill:#0e0000;fill-opacity:1;stroke:none;stroke-width:0.26458332"
         x="66.610458"
         y="47.363243"
         id="text8915-9"><tspan
           id="tspan260"
           x="66.610458"
           y="47.363243">E</tspan></text>
      <path
         d="m 62.37595,50.834688 c 0.32874,0.120919 0.59479,0.41467 0.59479,0.656229 -3.3e-4,0.241437 -0.26738,0.339051 -0.5962,0.218091 -0.32875,-0.12092 -0.59482,-0.414637 -0.59482,-0.656234 3.6e-4,-0.241428 0.26738,-0.339055 0.59623,-0.218086 z m -1.99512,-0.733872 c 0.32875,0.120919 0.5948,0.41467 0.5948,0.656229 -3.4e-4,0.241438 -0.26739,0.33905 -0.59619,0.218091 -0.32876,-0.12092 -0.59484,-0.414637 -0.59484,-0.656233 3.8e-4,-0.241462 0.26739,-0.339057 0.59623,-0.218087 z m -0.004,0.862633 -0.004,1.783533 -3.07307,1.123204 3.02947,3.342658 -0.006,4.324528 m 2.0224,0.734257 0.006,-4.263849 3.10775,-1.135924 -3.06406,-3.380859 0.004,-1.770965 m 0.002,-0.858576 0.004,-1.723122 3.07307,-1.137264 -3.0641,-3.380874 0.006,-4.353175 m -2.02235,-0.743959 -0.006,4.353179 -3.07297,1.123239 3.06409,3.394929 -0.004,1.697986"
         style="fill:none;stroke:#1602dd;stroke-width:0.36500004;stroke-miterlimit:4;stroke-dasharray:none;stroke-opacity:1"
         id="path4625-6" />
    </g>
    <g
       id="g435"
       transform="translate(-25.384411,113.68135)">
      <path
         id="path5490-4"
         d="m 196.34267,10.17985 0.0434,4.168412"
         style="fill:none;fill-opacity:1;stroke:#787878;stroke-width:0.26458332px;stroke-linecap:butt;stroke-linejoin:miter;stroke-opacity:1;marker-start:url(#Arrow1Mstart-1);marker-end:url(#Arrow1Mend-5)" />
      <path
         style="fill:none;fill-opacity:1;stroke:#757575;stroke-width:0.26458332px;stroke-linecap:butt;stroke-linejoin:miter;stroke-opacity:1;marker-start:url(#marker7162-6);marker-end:url(#marker7244-5)"
         d="m 199.10158,21.599586 -6.22286,0.04339"
         id="path7158-8" />
      <path
         style="fill:none;fill-opacity:1;stroke:#787878;stroke-width:0.26458332px;stroke-linecap:butt;stroke-linejoin:miter;stroke-opacity:1"
         d="m 191.94439,17.565576 0.0434,4.168412"
         id="path7606-1" />
      <path
         id="path8252-0"
         d="m 200.0715,15.822389 0.0434,5.911599"
         style="fill:none;fill-opacity:1;stroke:#787878;stroke-width:0.26458332px;stroke-linecap:butt;stroke-linejoin:miter;stroke-opacity:1" />
      <text
         id="text8911-3"
         y="8.0940905"
         x="194.98209"
         style="font-style:normal;font-variant:normal;font-weight:bold;font-stretch:normal;font-size:4.68368101px;line-height:1.25;font-family:'Noto Serif CJK JP';-inkscape-font-specification:'Noto Serif CJK JP, Bold';font-variant-ligatures:normal;font-variant-caps:normal;font-variant-numeric:normal;font-feature-settings:normal;text-align:start;letter-spacing:0px;word-spacing:0px;writing-mode:lr-tb;text-anchor:start;fill:#0e0000;fill-opacity:1;stroke:none;stroke-width:0.26458332"
         xml:space="preserve"><tspan
           style="font-style:normal;font-variant:normal;font-weight:bold;font-stretch:normal;font-size:4.68368101px;font-family:'Noto Serif CJK JP';-inkscape-font-specification:'Noto Serif CJK JP, Bold';font-variant-ligatures:normal;font-variant-caps:normal;font-variant-numeric:normal;font-feature-settings:normal;text-align:start;writing-mode:lr-tb;text-anchor:start;fill:#0e0000;fill-opacity:1;stroke-width:0.26458332"
           y="8.0940905"
           x="194.98209"
           id="tspan8909-0">D</tspan></text>
      <text
         xml:space="preserve"
         style="font-style:normal;font-variant:normal;font-weight:bold;font-stretch:normal;font-size:4.68357325px;line-height:1.25;font-family:'Noto Serif CJK JP';-inkscape-font-specification:'Noto Serif CJK JP, Bold';font-variant-ligatures:normal;font-variant-caps:normal;font-variant-numeric:normal;font-feature-settings:normal;text-align:start;letter-spacing:0px;word-spacing:0px;writing-mode:lr-tb;text-anchor:start;fill:#0e0000;fill-opacity:1;stroke:none;stroke-width:0.26458332"
         x="192.95129"
         y="19.967182"
         id="text8915-4"><tspan
           id="tspan8917-4"
           x="192.95129"
           y="19.967182"
           style="stroke-width:0.26458332">A1</tspan></text>
      <text
         id="text8921-4"
         y="3.808893"
         x="202.39426"
         style="font-style:normal;font-variant:normal;font-weight:bold;font-stretch:normal;font-size:4.68357325px;line-height:1.25;font-family:'Noto Serif CJK JP';-inkscape-font-specification:'Noto Serif CJK JP, Bold';font-variant-ligatures:normal;font-variant-caps:normal;font-variant-numeric:normal;font-feature-settings:normal;text-align:start;letter-spacing:0px;word-spacing:0px;writing-mode:lr-tb;text-anchor:start;fill:#0e0000;fill-opacity:1;stroke:none;stroke-width:0.26458332"
         xml:space="preserve"><tspan
           id="tspan8923-4"
           x="202.39426"
           y="3.808893"
           style="stroke-width:0.26458332">B</tspan></text>
      <text
         xml:space="preserve"
         style="font-style:normal;font-variant:normal;font-weight:bold;font-stretch:normal;font-size:4.68357325px;line-height:1.25;font-family:'Noto Serif CJK JP';-inkscape-font-specification:'Noto Serif CJK JP, Bold';font-variant-ligatures:normal;font-variant-caps:normal;font-variant-numeric:normal;font-feature-settings:normal;text-align:start;letter-spacing:0px;word-spacing:0px;writing-mode:lr-tb;text-anchor:start;fill:#0e0000;fill-opacity:1;stroke:none;stroke-width:0.26458332"
         x="287.14975"
         y="3.808893"
         id="text8935-7"><tspan
           y="3.808893"
           x="287.14975"
           id="tspan8933-6"
           style="stroke-width:0.26458332">C</tspan></text>
      <text
         id="text8939-3"
         y="19.967182"
         x="223.37611"
         style="font-style:normal;font-variant:normal;font-weight:bold;font-stretch:normal;font-size:4.68357325px;line-height:1.25;font-family:'Noto Serif CJK JP';-inkscape-font-specification:'Noto Serif CJK JP, Bold';font-variant-ligatures:normal;font-variant-caps:normal;font-variant-numeric:normal;font-feature-settings:normal;text-align:start;letter-spacing:0px;word-spacing:0px;writing-mode:lr-tb;text-anchor:start;fill:#0e0000;fill-opacity:1;stroke:none;stroke-width:0.26458332"
         xml:space="preserve"><tspan
           id="tspan8941-1"
           x="223.37611"
           y="19.967182"
           style="stroke-width:0.26458332">A2</tspan></text>
      <path
         id="path437"
         style="fill:none;stroke:#1602dd;stroke-width:0.6649999;stroke-miterlimit:4;stroke-dasharray:none;stroke-opacity:1"
         d="m 190.4122,15.221915 h -6.59001 l -8.6672,8.613476 -8.61345,-8.61346 -18.90688,-3.9e-5 -8.66721,8.613476 -8.61345,-8.61346 H 108.94521 L 100.27799,23.835385 88.826094,12.383508 100.27799,0.93163154 108.94521,9.5451085 H 130.354 l 8.61345,-8.61345396 8.66721,8.61347696 h 18.90688 l 8.61345,-8.61345396 8.6672,8.61347696 h 6.49393 m 3.3597,5.6053125 c 0,0.923295 -0.74848,1.671778 -1.67178,1.671778 -0.92329,0 -1.67177,-0.748483 -1.67177,-1.671778 0,-0.923295 0.74848,-1.671777 1.67177,-1.671777 0.9233,0 1.67178,0.748482 1.67178,1.671777 z m 0,-5.6003412 c 0,0.9232952 -0.74848,1.6717782 -1.67178,1.6717782 -0.92329,0 -1.67177,-0.748483 -1.67177,-1.6717782 0,-0.923295 0.74848,-1.671778 1.67177,-1.671778 0.9233,0 1.67178,0.748483 1.67178,1.671778 z m -0.0655,5.6662822 h 6.59001 l 8.6672,8.613476 8.61345,-8.61346 18.90688,-3.9e-5 8.66721,8.613476 8.61345,-8.61346 h 21.40879 l 8.6672,8.613477 11.45187,-11.451877 -11.45187,-11.4518782 -8.6672,8.613477 h -21.40879 l -8.61345,-8.613454 -8.66721,8.613477 h -18.90688 l -8.61345,-8.613454 -8.6672,8.613477 h -6.49393" />
      <text
         xml:space="preserve"
         style="font-style:normal;font-variant:normal;font-weight:bold;font-stretch:normal;font-size:4.68357325px;line-height:1.25;font-family:'Noto Serif CJK JP';-inkscape-font-specification:'Noto Serif CJK JP, Bold';font-variant-ligatures:normal;font-variant-caps:normal;font-variant-numeric:normal;font-feature-settings:normal;text-align:start;letter-spacing:0px;word-spacing:0px;writing-mode:lr-tb;text-anchor:start;fill:#0e0000;fill-opacity:1;stroke:none;stroke-width:0.26458332"
         x="260.94659"
         y="19.967182"
         id="text450"><tspan
           style="stroke-width:0.26458332"
           y="19.967182"
           x="260.94659"
           id="tspan448">A3</tspan></text>
      <text
         xml:space="preserve"
         style="font-style:normal;font-variant:normal;font-weight:bold;font-stretch:normal;font-size:4.68357325px;line-height:1.25;font-family:'Noto Serif CJK JP';-inkscape-font-specification:'Noto Serif CJK JP, Bold';font-variant-ligatures:normal;font-variant-caps:normal;font-variant-numeric:normal;font-feature-settings:normal;text-align:start;letter-spacing:0px;word-spacing:0px;writing-mode:lr-tb;text-anchor:start;fill:#0e0000;fill-opacity:1;stroke:none;stroke-width:0.26458332"
         x="212.97745"
         y="3.808893"
         id="text55"><tspan
           style="stroke-width:0.26458332"
           y="3.808893"
           x="212.97745"
           id="tspan53">B</tspan></text>
      <text
         id="text59"
         y="3.808893"
         x="238.37711"
         style="font-style:normal;font-variant:normal;font-weight:bold;font-stretch:normal;font-size:4.68357325px;line-height:1.25;font-family:'Noto Serif CJK JP';-inkscape-font-specification:'Noto Serif CJK JP, Bold';font-variant-ligatures:normal;font-variant-caps:normal;font-variant-numeric:normal;font-feature-settings:normal;text-align:start;letter-spacing:0px;word-spacing:0px;writing-mode:lr-tb;text-anchor:start;fill:#0e0000;fill-opacity:1;stroke:none;stroke-width:0.26458332"
         xml:space="preserve"><tspan
           id="tspan57"
           x="238.37711"
           y="3.808893"
           style="stroke-width:0.26458332">B</tspan></text>
      <text
         xml:space="preserve"
         style="font-style:normal;font-variant:normal;font-weight:bold;font-stretch:normal;font-size:4.68357325px;line-height:1.25;font-family:'Noto Serif CJK JP';-inkscape-font-specification:'Noto Serif CJK JP, Bold';font-variant-ligatures:normal;font-variant-caps:normal;font-variant-numeric:normal;font-feature-settings:normal;text-align:start;letter-spacing:0px;word-spacing:0px;writing-mode:lr-tb;text-anchor:start;fill:#0e0000;fill-opacity:1;stroke:none;stroke-width:0.26458332"
         x="248.9603"
         y="3.808893"
         id="text63"><tspan
           style="stroke-width:0.26458332"
           y="3.808893"
           x="248.9603"
           id="tspan61">B</tspan></text>
      <text
         id="text67"
         y="3.808893"
         x="277.00635"
         style="font-style:normal;font-variant:normal;font-weight:bold;font-stretch:normal;font-size:4.68357325px;line-height:1.25;font-family:'Noto Serif CJK JP';-inkscape-font-specification:'Noto Serif CJK JP, Bold';font-variant-ligatures:normal;font-variant-caps:normal;font-variant-numeric:normal;font-feature-settings:normal;text-align:start;letter-spacing:0px;word-spacing:0px;writing-mode:lr-tb;text-anchor:start;fill:#0e0000;fill-opacity:1;stroke:none;stroke-width:0.26458332"
         xml:space="preserve"><tspan
           id="tspan65"
           x="277.00635"
           y="3.808893"
           style="stroke-width:0.26458332">B</tspan></text>
    </g>
  </g>
</svg>
